PathFileType	4	(X/Y/Z)	E:\Qualisys_Data\Carbon_Farble_Plate\Data\Amateur_Runner\S14\T2\S14T2V13_c3d.trc
DataRate	CameraRate	NumFrames	NumMarkers	Units	OrigDataRate	OrigDataStartFrame	OrigNumFrames
200.000000	200.000000	4	39	mm	200.000000	39	319
Frame#	Time	LSHO			RSHO			LICST			RICST			LASIS			LHEEL			RASIS			LTROC			RTROC			SACR			LTH1			LSK4			LTH2			LTH3			RHM5			LSK2			LTH4			RTH1			LTOE			RTH2			RTH3			RTH4			LLEP			RLEP			LSK1			LSK3			RSK1			LHM5			RSK2			LFT1			RSK3			RSK4			LLME			RLME			RTOE			RHEEL			RFT1			RFT2			LFT2			
		X1	Y1	Z1	X2	Y2	Z2	X3	Y3	Z3	X4	Y4	Z4	X5	Y5	Z5	X6	Y6	Z6	X7	Y7	Z7	X8	Y8	Z8	X9	Y9	Z9	X10	Y10	Z10	X11	Y11	Z11	X12	Y12	Z12	X13	Y13	Z13	X14	Y14	Z14	X15	Y15	Z15	X16	Y16	Z16	X17	Y17	Z17	X18	Y18	Z18	X19	Y19	Z19	X20	Y20	Z20	X21	Y21	Z21	X22	Y22	Z22	X23	Y23	Z23	X24	Y24	Z24	X25	Y25	Z25	X26	Y26	Z26	X27	Y27	Z27	X28	Y28	Z28	X29	Y29	Z29	X30	Y30	Z30	X31	Y31	Z31	X32	Y32	Z32	X33	Y33	Z33	X34	Y34	Z34	X35	Y35	Z35	X36	Y36	Z36	X37	Y37	Z37	X38	Y38	Z38	X39	Y39	Z39	

40	0.195	-1757.507202148438	1398.00732421875	-481.6112365722656	-1727.828979492188	1384.930419921875	-174.8068084716797	-1820.258422851562	947.5830688476562	-465.7633361816406	-1790.984619140625	962.0524291992188	-186.5346527099609	-1775.775512695312	900.1534423828125	-443.1410827636719	-2114.843505859375	423.4873962402344	-344.7839660644531	-1765.336669921875	922.2391967773438	-208.4080963134766	-1904.322265625	821.6876831054688	-473.3763427734375	-1902.853393554688	847.0723876953125	-151.1112518310547	-1945.574829101562	939.1295776367188	-352.0174560546875	-1755.643432617188	628.3594360351562	-494.504150390625	-1927.126220703125	458.3149719238281	-438.9572448730469	-1823.038940429688	601.3031005859375	-463.8761291503906	-1709.581909179688	540.96630859375	-480.5330505371094	-1891.608642578125	72.72258758544922	-181.1416625976562	-1843.574951171875	491.6176452636719	-472.0347290039062	-1782.524169921875	513.2680053710938	-455.7568359375	-1750.817504882812	634.718505859375	-150.603515625	-2058.635986328125	174.8023071289062	-386.0879821777344	-1828.963256835938	630.5798950195312	-145.4587097167969	-1741.650268554688	538.72998046875	-182.3700103759766	-1823.26904296875	530.7850341796875	-168.6688079833984	-1744.29638671875	479.3438720703125	-472.9278564453125	-1796.6240234375	461.9347534179688	-179.6102142333984	-1809.7216796875	407.9848937988281	-461.945068359375	-1905.257934570312	380.7148132324219	-437.6251525878906	-1817.980590820312	340.1952819824219	-182.4185943603516	-2103.7421875	235.8379211425781	-441.7850341796875	-1894.010986328125	377.0712280273438	-171.5986480712891	-2137.044189453125	404.4637145996094	-320.1712036132812	-1872.369995117188	252.2138519287109	-199.91064453125	-1938.739135742188	292.935791015625	-186.8014984130859	-2077.341796875	377.4191284179688	-411.6845703125	-2000.045654296875	133.4651489257812	-214.3072662353516	-1813.666259765625	72.0526351928711	-246.4870300292969	-2069.26708984375	115.2541351318359	-271.0406799316406	-2058.806640625	81.2342300415039	-295.2525329589844	-2072.927001953125	87.99313354492188	-240.3725891113281	-2145.221435546875	414.1461791992188	-375.4445190429688
41	0.2	-1744.312377929688	1400.41455078125	-482.1807250976562	-1710.541748046875	1387.381591796875	-176.5085754394531	-1804.827880859375	950.0450439453124	-466.0797424316406	-1775.856323242188	964.2142333984376	-186.0029296875	-1760.583374023438	902.7435302734376	-443.4913024902344	-2091.18896484375	416.0711364746094	-345.6806030273438	-1748.236206054688	922.9659423828124	-206.9938354492188	-1887.938354492188	824.3656005859375	-474.1309814453125	-1889.016723632812	849.2020874023438	-151.6685943603516	-1931.423706054688	942.3848266601562	-353.8237915039062	-1736.701416015625	632.3512573242188	-494.4121704101562	-1904.597900390625	457.9823913574219	-439.9825744628906	-1803.217529296875	604.413330078125	-463.4644165039062	-1688.679809570312	546.3189697265625	-480.3822021484375	-1891.336669921875	72.92704010009766	-181.4024200439453	-1815.595581054688	489.7207336425781	-467.6261901855469	-1760.8505859375	517.149169921875	-455.25830078125	-1741.214965820312	633.9373168945312	-150.8456878662109	-2026.726440429688	169.4107666015625	-386.5152587890625	-1819.461547851562	631.4683227539062	-145.2284088134766	-1733.852661132812	538.0062866210938	-183.0387725830078	-1817.957641601562	532.1370239257812	-168.9146423339844	-1721.6826171875	484.1780700683594	-472.6629943847656	-1791.542114257812	462.0724182128906	-179.5785675048828	-1785.313720703125	410.5514221191406	-461.8354797363281	-1879.489501953125	380.0348815917969	-437.766845703125	-1815.088745117188	339.8375244140625	-182.3362884521484	-2072.505615234375	228.9373474121094	-442.2008361816406	-1890.811157226562	378.5040588378906	-171.8075256347656	-2113.001953125	396.4128723144531	-321.7132263183594	-1868.854858398438	254.1015777587891	-200.0092010498047	-1935.621826171875	294.8432312011719	-186.9955139160156	-2052.013916015625	371.7901916503906	-412.076171875	-1999.652099609375	135.716064453125	-214.599609375	-1813.511474609375	71.97877502441406	-246.6513214111328	-2069.041259765625	117.1981582641602	-271.0553894042969	-2057.597900390625	82.3886947631836	-295.6104736328125	-2072.25244140625	90.80831909179688	-240.8200378417969	-2122.034423828125	405.8734436035156	-376.1585083007812
42	0.205	-1730.8740234375	1403.181518554688	-482.8127136230469	-1692.404663085938	1390.58984375	-177.9866180419922	-1789.647338867188	953.0835571289062	-466.3375854492188	-1759.633911132812	966.2078247070312	-185.7254943847656	-1744.39404296875	905.2510375976562	-443.15869140625	-2060.948974609375	410.1217651367188	-343.1195678710938	-1733.587890625	925.931884765625	-207.0797119140625	-1871.641967773438	827.3142700195312	-475.1037292480469	-1875.2421875	851.6051635742188	-152.3809051513672	-1915.792236328125	944.462646484375	-353.6991271972656	-1717.369384765625	636.40234375	-494.3712768554688	-1881.161499023438	456.2346496582031	-439.9130249023438	-1783.637573242188	608.064697265625	-463.3461608886719	-1667.341430664062	551.125732421875	-480.1004638671875	-1891.050048828125	73.3075942993164	-181.6026916503906	-1791.546142578125	489.275634765625	-466.0100708007812	-1738.658569335938	521.0964965820312	-454.6278381347656	-1732.231567382812	633.7892456054688	-151.4080810546875	-1994.655883789062	163.2046356201172	-385.706298828125	-1810.921875	633.562255859375	-146.1015014648438	-1727.786743164062	537.5863647460938	-182.8467102050781	-1811.220458984375	533.8441162109375	-169.6277923583984	-1699.18310546875	488.8159790039062	-471.8546447753906	-1786.777587890625	463.0086059570312	-179.7397766113281	-1760.41943359375	412.8620910644531	-460.6179809570312	-1854.307373046875	379.9393615722656	-437.8713073730469	-1811.579833984375	341.239501953125	-182.1277618408203	-2040.919921875	222.0252685546875	-442.09619140625	-1886.701782226562	380.4613952636719	-171.9015960693359	-2089.35986328125	388.2831420898438	-322.3419189453125	-1867.200927734375	254.8488464355469	-200.5780487060547	-1933.130126953125	297.5627746582031	-187.3679046630859	-2026.002807617188	365.3804931640625	-412.2389221191406	-1997.917846679688	138.153076171875	-214.7358856201172	-1813.419921875	72.0313491821289	-246.5684356689453	-2067.196533203125	119.9407653808594	-271.5055847167969	-2057.032958984375	85.15313720703125	-295.4674682617188	-2071.4990234375	93.7067642211914	-240.9490203857422	-2097.25244140625	396.8990173339844	-377.31396484375
43	0.21	-1717.037353515625	1406.049194335938	-483.2025146484375	-1675.311279296875	1393.169799804688	-179.858642578125	-1773.213745117188	955.7063598632812	-465.6907043457031	-1743.212646484375	969.1093139648438	-186.1649627685547	-1728.379150390625	907.8710327148438	-442.7889099121094	-2045.189208984375	401.0350341796875	-345.9393005371094	-1717.944702148438	926.92529296875	-205.9556732177734	-1855.13232421875	830.8895874023438	-475.8686218261719	-1860.319458007812	854.3135375976562	-153.1573333740234	-1898.511474609375	946.4198608398438	-352.1051940917969	-1698.417724609375	641.1561889648438	-495.0729675292969	-1858.734497070312	455.0016479492188	-440.871826171875	-1764.06005859375	611.1403198242188	-463.1853637695312	-1646.689331054688	557.18212890625	-479.9007873535156	-1890.58837890625	73.89960479736328	-181.9306945800781	-1769.698974609375	491.0558471679688	-466.0921630859375	-1717.262817382812	525.37060546875	-453.9928894042969	-1723.945190429688	633.4994506835938	-151.8493347167969	-1961.5263671875	157.8767547607422	-385.7487487792969	-1802.000122070312	635.4315185546875	-146.9751586914062	-1722.046997070312	537.22412109375	-183.5363922119141	-1804.528686523438	535.70947265625	-170.1505126953125	-1676.884399414062	493.3757019042969	-471.390380859375	-1782.404174804688	464.0099182128906	-180.7154083251953	-1735.125122070312	414.4490661621094	-459.5776062011719	-1829.140747070312	379.5809631347656	-438.1000061035156	-1808.19091796875	342.8974914550781	-182.3602447509766	-2009.211791992188	215.2356872558594	-442.7040710449219	-1882.967529296875	382.9078063964844	-172.9409332275391	-2064.38818359375	378.7796325683594	-322.8731079101562	-1864.953735351562	257.3243408203125	-200.2079010009766	-1929.335205078125	299.7916870117188	-187.1954956054688	-1999.632202148438	358.4963989257812	-412.5588989257812	-1997.057006835938	140.9785614013672	-215.0596160888672	-1812.9970703125	71.89129638671875	-246.7811737060547	-2065.491943359375	123.7026901245117	-270.8168640136719	-2056.25927734375	89.09610748291016	-295.5682983398438	-2069.772705078125	97.73650360107422	-240.584228515625	-2073.748046875	387.5106506347656	-378.0821838378906
